<?xml version="1.0" standalone="no"?>
<!DOCTYPE svg PUBLIC "-//W3C//DTD SVG 20010904//EN"
 "http://www.w3.org/TR/2001/REC-SVG-20010904/DTD/svg10.dtd">
<svg version="1.0" xmlns="http://www.w3.org/2000/svg"
 width="745.000000pt" height="335.000000pt" viewBox="0 0 745.000000 335.000000"
 preserveAspectRatio="xMidYMid meet">

<g transform="translate(0.000000,335.000000) scale(0.100000,-0.100000)"
fill="#000000" stroke="none">
<path d="M1975 2790 c-74 -11 -156 -53 -213 -111 l-50 -50 -43 46 c-26 28 -69
59 -108 78 -57 27 -79 32 -161 35 -107 4 -168 -13 -254 -69 -80 -53 -166 -207
-166 -297 0 -80 49 -208 122 -314 23 -35 34 -58 26 -59 -7 0 -83 -4 -169 -7
-150 -7 -157 -8 -192 -35 -70 -53 -77 -83 -77 -319 0 -229 3 -242 63 -306 44
-46 107 -62 247 -62 l116 0 82 -55 c46 -30 85 -55 88 -55 3 0 26 -16 51 -35
45 -34 92 -45 120 -27 10 6 13 80 15 291 l3 283 44 -38 c25 -22 61 -54 80 -71
20 -18 39 -33 42 -33 4 0 9 -7 13 -15 3 -10 -8 -28 -32 -49 l-37 -34 0 -349
c0 -389 -3 -371 74 -424 34 -24 40 -24 305 -27 168 -2 284 1 306 7 43 13 93
64 109 110 15 47 15 610 0 662 -20 67 -48 83 -145 88 l-84 3 0 33 c0 48 -16
82 -41 90 -33 11 -59 -25 -59 -81 l0 -44 -127 0 -128 0 218 216 c237 236 326
339 375 436 38 77 52 128 52 193 -1 255 -212 434 -465 395z m-468 -135 c60
-28 102 -67 145 -136 25 -41 35 -49 59 -49 16 0 36 8 43 18 87 107 107 128
156 155 44 24 71 31 130 35 92 5 148 -16 209 -80 62 -64 76 -100 75 -193 -2
-142 -57 -239 -251 -435 -112 -114 -192 -185 -339 -302 -21 -17 -24 -17 -85
28 -72 52 -389 369 -389 388 0 3 38 6 84 6 46 0 91 3 100 6 9 3 32 34 53 68
20 33 41 67 46 74 7 9 30 -28 85 -137 41 -82 81 -152 88 -155 25 -10 44 6 100
80 l56 74 63 0 c66 0 90 13 83 47 -3 16 -15 18 -98 18 l-94 0 -38 -50 c-21
-27 -41 -51 -45 -52 -5 -1 -16 14 -25 35 -37 82 -110 238 -120 260 -7 14 -20
22 -36 22 -21 0 -61 -33 -62 -52 0 -4 -21 -41 -46 -83 l-46 -76 -115 3 -116 3
-28 52 c-28 52 -34 70 -45 150 -13 85 37 204 103 249 63 43 98 53 173 54 59 0
86 -5 127 -25z m781 -1567 l2 -257 -25 -25 -26 -26 -255 0 -255 0 -24 25 -25
24 0 261 0 260 303 -2 302 -3 3 -257z"/>
<path d="M1822 1208 c-13 -13 -16 -75 -6 -102 5 -12 20 -16 59 -16 30 0 56 4
60 9 3 5 2 35 -1 65 l-7 56 -46 0 c-26 0 -52 -5 -59 -12z"/>
<path d="M2052 1208 c-7 -7 -12 -36 -12 -65 l0 -53 60 0 60 0 0 59 c0 44 -4
60 -16 65 -26 10 -79 7 -92 -6z"/>
<path d="M1814 987 c-3 -8 -4 -34 -2 -58 l3 -44 63 -3 63 -3 -3 58 -3 58 -58
3 c-43 2 -59 -1 -63 -11z"/>
<path d="M2047 994 c-4 -4 -7 -31 -7 -61 l0 -53 60 0 61 0 -3 58 -3 57 -50 3
c-28 2 -54 0 -58 -4z"/>
<path d="M3940 1807 l0 -109 -34 21 c-25 16 -50 21 -98 21 -56 0 -71 -4 -104
-29 -69 -49 -79 -73 -79 -181 0 -86 3 -99 26 -135 15 -22 36 -47 46 -56 51
-42 148 -51 201 -19 40 24 38 24 45 0 4 -16 14 -20 51 -20 l46 0 0 308 0 307
-50 0 -50 0 0 -108z m-20 -185 c28 -30 29 -171 2 -195 -83 -75 -192 -17 -192
102 0 47 4 57 35 88 33 33 39 35 86 31 33 -4 56 -12 69 -26z"/>
<path d="M4146 1904 c-35 -34 -6 -94 45 -94 58 0 90 58 51 93 -23 21 -76 22
-96 1z"/>
<path d="M2567 1892 l-77 -3 2 -292 3 -292 50 0 50 0 -1 218 c-1 119 0 217 2
217 4 0 64 -129 64 -136 0 -3 8 -24 19 -47 10 -23 28 -67 41 -98 22 -56 23
-56 65 -56 l42 0 48 116 c26 64 56 135 66 158 11 23 19 47 19 52 0 6 4 11 10
11 5 0 9 -41 9 -97 -1 -54 -1 -151 0 -215 l1 -118 45 0 45 0 0 295 0 296 -72
-3 -73 -3 -28 -75 c-16 -41 -42 -109 -59 -150 -16 -41 -34 -86 -40 -100 l-10
-25 -17 36 c-10 20 -21 45 -24 55 -3 11 -15 44 -27 74 -11 30 -30 82 -42 115
-11 33 -23 62 -27 65 -3 3 -41 4 -84 2z"/>
<path d="M4980 1605 l0 -295 50 0 50 0 0 211 c0 187 2 210 15 199 8 -7 15 -19
15 -26 0 -8 4 -22 10 -32 5 -9 16 -33 24 -52 32 -75 59 -137 78 -178 20 -42
21 -43 64 -40 l44 3 67 155 c36 85 72 164 80 175 11 17 13 -13 13 -200 l0
-220 55 3 55 4 0 294 0 295 -81 -3 -80 -3 -21 -50 c-11 -27 -24 -59 -28 -70
-43 -109 -95 -227 -100 -230 -8 -5 -14 9 -84 185 -72 179 -59 165 -149 168
l-77 3 0 -296z"/>
<path d="M6690 1795 c0 -54 0 -55 -30 -55 -28 0 -30 -2 -30 -40 0 -38 2 -40
30 -40 l30 0 1 -122 c0 -72 6 -138 13 -158 17 -47 67 -80 123 -80 65 0 83 13
83 61 0 40 0 40 -32 34 -62 -11 -78 21 -78 159 l0 106 55 0 55 0 0 40 0 40
-55 0 -55 0 0 55 0 55 -55 0 -55 0 0 -55z"/>
<path d="M3246 1712 c-55 -38 -77 -72 -87 -134 -22 -131 30 -228 140 -266 56
-20 179 -13 165 9 -3 5 1 6 9 3 8 -3 29 7 47 22 l32 28 -33 26 -32 27 -35 -23
c-39 -27 -77 -30 -119 -12 -39 18 -62 48 -63 81 l0 27 151 0 151 0 -7 57 c-16
129 -78 183 -207 183 -63 -1 -78 -4 -112 -28z m173 -68 c19 -16 31 -35 31 -50
0 -24 -2 -24 -90 -24 -87 0 -90 1 -90 23 0 27 8 38 40 60 35 24 74 21 109 -9z"/>
<path d="M4147 1733 c-4 -3 -7 -100 -7 -215 l0 -208 55 0 55 0 0 215 0 215
-48 0 c-27 0 -52 -3 -55 -7z"/>
<path d="M4330 1735 c0 -3 29 -51 65 -105 l66 -100 -58 -88 c-32 -48 -60 -89
-64 -92 -3 -3 -11 -14 -17 -25 -10 -19 -7 -20 49 -17 l59 4 41 69 42 70 33
-53 c19 -29 37 -61 40 -70 5 -15 18 -18 70 -18 35 0 64 2 64 4 0 3 -31 50 -70
106 -38 56 -70 105 -70 110 0 12 24 50 83 132 26 36 47 68 47 72 0 3 -26 6
-57 5 l-58 0 -39 -61 c-43 -67 -38 -68 -88 16 -27 46 -28 46 -83 46 -30 0 -55
-2 -55 -5z"/>
<path d="M5805 1723 c-77 -40 -108 -95 -107 -193 0 -72 17 -120 56 -163 75
-81 241 -90 311 -17 l26 27 -35 26 c-29 23 -36 24 -46 12 -23 -28 -86 -40
-130 -25 -42 14 -62 37 -74 83 l-6 27 155 0 155 0 0 31 c0 86 -40 159 -107
193 -42 21 -157 21 -198 -1z m139 -63 c23 -8 56 -55 56 -80 0 -11 -182 -15
-193 -4 -9 10 20 61 45 78 26 18 56 20 92 6z"/>
<path d="M6278 1720 c-122 -65 -145 -252 -43 -354 70 -70 174 -86 270 -41 29
14 55 32 58 40 7 16 -59 70 -68 56 -9 -15 -66 -41 -90 -41 -46 0 -96 30 -111
65 -8 19 -14 39 -14 45 0 6 55 10 155 10 l155 0 0 44 c0 46 -24 112 -51 139
-9 8 -31 25 -50 36 -46 28 -158 29 -211 1z m161 -76 c19 -16 31 -35 31 -50 0
-24 -2 -24 -88 -24 -49 0 -91 3 -95 6 -11 12 14 60 41 77 39 24 76 21 111 -9z"/>
</g>
</svg>
